D:\school\WTK\thesis\model\3dpredictsim\Results\Batchsim_tmt_linear_v2\Pog_s1_tmt_aCst_d02_k2000_ig24_pas_GRF.mot
nRows=20
nColumns=19

name D:\school\WTK\thesis\model\3dpredictsim\Results\Batchsim_tmt_linear_v2\Pog_s1_tmt_aCst_d02_k2000_ig24_pas_GRF.mot
datacolumns 19
datarows 20
range 0.0000000000 0.2038656183
endheader
time 	ground_force_vx	ground_force_vy	ground_force_vz	ground_force_px	ground_force_py	ground_force_pz	1_ground_force_vx	1_ground_force_vy	1_ground_force_vz	1_ground_force_px	1_ground_force_py	1_ground_force_pz	ground_torque_x	ground_torque_y	ground_torque_z	1_ground_torque_x	1_ground_torque_y	1_ground_torque_z
        0.0000000000	      -61.0574919935	       42.3144522913	       10.2264019858	        0.1604292961	        0.0000000000	        0.0471373762	      125.2486860510	      522.8883423929	        4.6350186738	       -0.3460208257	        0.0000000000	       -0.0492039817	        0.0000000000	        0.0000000000	        0.0000000000	        0.0000000000	        0.0000000000	        0.0000000000	
        0.0107297694	     -112.9737098967	       96.4745623908	       25.3902877481	        0.1710568140	        0.0000000000	        0.0453078707	       99.1372303038	      435.1050864064	       -0.4747963464	       -0.3358734833	        0.0000000000	       -0.0478711594	        0.0000000000	        0.0000000000	        0.0000000000	        0.0000000000	        0.0000000000	        0.0000000000	
        0.0214595388	     -114.4342418736	      208.8060529578	       48.0293901798	        0.1780574137	        0.0000000000	        0.0443544882	       64.6575442188	      333.2214591801	       -6.3040549622	       -0.3195340727	        0.0000000000	       -0.0453639188	        0.0000000000	        0.0000000000	        0.0000000000	        0.0000000000	        0.0000000000	        0.0000000000	
        0.0321893081	      -60.7402493481	      381.2527453857	        7.3346086407	        0.1830537217	        0.0000000000	        0.0436206385	       30.0668023287	      235.0344274234	       -5.8640657367	       -0.2942503008	        0.0000000000	       -0.0409460228	        0.0000000000	        0.0000000000	        0.0000000000	        0.0000000000	        0.0000000000	        0.0000000000	
        0.0429190775	      -72.8818175533	      593.6047517306	       -7.0058657469	        0.1916143825	        0.0000000000	        0.0458365812	        6.8210046148	      160.5475065069	       -8.8497003420	       -0.2636963675	        0.0000000000	       -0.0336865898	        0.0000000000	        0.0000000000	        0.0000000000	        0.0000000000	        0.0000000000	        0.0000000000	
        0.0536488469	     -111.3861896833	      798.7161795352	      -14.6510024642	        0.2001082135	        0.0000000000	        0.0483971266	       -1.2254131382	      133.8261860802	      -12.3374166325	       -0.2598281047	        0.0000000000	       -0.0326609140	        0.0000000000	        0.0000000000	        0.0000000000	        0.0000000000	        0.0000000000	        0.0000000000	
        0.0643786163	     -127.2239441338	      901.0126152946	      -18.0823543135	        0.2058582537	        0.0000000000	        0.0499802575	       -2.1811411848	      100.8646558221	      -14.2283230154	       -0.2592472092	        0.0000000000	       -0.0328862676	        0.0000000000	        0.0000000000	        0.0000000000	        0.0000000000	        0.0000000000	        0.0000000000	
        0.0751083857	     -123.9061012301	      906.2608952557	      -18.4096158834	        0.2100610017	        0.0000000000	        0.0510137126	       -5.2354902935	       64.4988542557	      -13.2758692526	       -0.2587982684	        0.0000000000	       -0.0330144624	        0.0000000000	        0.0000000000	        0.0000000000	        0.0000000000	        0.0000000000	        0.0000000000	
        0.0858381551	     -113.6041080101	      869.2867076198	      -17.8578957762	        0.2136932120	        0.0000000000	        0.0517613504	       -9.2826619444	       26.5673071267	       -6.5813639602	       -0.2591889302	        0.0000000000	       -0.0326619675	        0.0000000000	        0.0000000000	        0.0000000000	        0.0000000000	        0.0000000000	        0.0000000000	
        0.0965679244	     -101.1342071167	      830.5040036911	      -16.1982259416	        0.2175340105	        0.0000000000	        0.0523965428	        0.1706582243	       -0.1694885881	        0.0146673802	        0.0000000000	        0.0000000000	        0.0000000000	        0.0000000000	        0.0000000000	        0.0000000000	        0.0000000000	        0.0000000000	        0.0000000000	
        0.1072976938	      -92.2953121764	      805.5089045585	      -17.2246195079	        0.2226753353	        0.0000000000	        0.0530579140	        0.0007254310	       -0.0005931806	       -0.0000019088	        0.0000000000	        0.0000000000	        0.0000000000	        0.0000000000	        0.0000000000	        0.0000000000	        0.0000000000	        0.0000000000	        0.0000000000	
        0.1180274632	      -85.1729933235	      782.7028394113	      -17.2145210384	        0.2288544965	        0.0000000000	        0.0532737432	        0.0002917027	       -0.0002073699	       -0.0000066748	        0.0000000000	        0.0000000000	        0.0000000000	        0.0000000000	        0.0000000000	        0.0000000000	        0.0000000000	        0.0000000000	        0.0000000000	
        0.1287572326	      -76.8740767145	      747.8377934638	      -17.0177435071	        0.2348185129	        0.0000000000	        0.0533817111	        0.0019831570	       -0.0012640335	       -0.0000626669	        0.0000000000	        0.0000000000	        0.0000000000	        0.0000000000	        0.0000000000	        0.0000000000	        0.0000000000	        0.0000000000	        0.0000000000	
        0.1394870020	      -68.8692868925	      711.6820887762	      -16.6986355898	        0.2407111869	        0.0000000000	        0.0533632112	        0.0044483097	       -0.0025996416	       -0.0001602834	        0.0000000000	        0.0000000000	        0.0000000000	        0.0000000000	        0.0000000000	        0.0000000000	        0.0000000000	        0.0000000000	        0.0000000000	
        0.1502167713	      -61.2426265844	      680.7589611462	      -16.5684749769	        0.2464750489	        0.0000000000	        0.0533127837	       -0.0640216031	        0.0348432173	        0.0024856798	        0.0000000000	        0.0000000000	        0.0000000000	        0.0000000000	        0.0000000000	        0.0000000000	        0.0000000000	        0.0000000000	        0.0000000000	
        0.1609465407	      -54.0389401534	      656.1000208087	      -16.9970196001	        0.2519448194	        0.0000000000	        0.0532577906	       -0.0451691528	        0.0231433142	        0.0018552618	        0.0000000000	        0.0000000000	        0.0000000000	        0.0000000000	        0.0000000000	        0.0000000000	        0.0000000000	        0.0000000000	        0.0000000000	
        0.1716763101	      -47.5550088961	      637.1086473486	      -17.4304217206	        0.2571101297	        0.0000000000	        0.0531892375	       -0.0320829642	        0.0156104552	        0.0013705405	        0.0000000000	        0.0000000000	        0.0000000000	        0.0000000000	        0.0000000000	        0.0000000000	        0.0000000000	        0.0000000000	        0.0000000000	
        0.1824060795	      -41.5256589065	      622.4635451877	      -17.6677495610	        0.2619537320	        0.0000000000	        0.0531037332	       -0.0282222073	        0.0131245495	        0.0012386418	        0.0000000000	        0.0000000000	        0.0000000000	        0.0000000000	        0.0000000000	        0.0000000000	        0.0000000000	        0.0000000000	        0.0000000000	
        0.1931358489	      -37.1404882709	      612.1897822981	      -18.2091494995	        0.2664897910	        0.0000000000	        0.0529883486	       -0.0317129402	        0.0141699784	        0.0014183567	        0.0000000000	        0.0000000000	        0.0000000000	        0.0000000000	        0.0000000000	        0.0000000000	        0.0000000000	        0.0000000000	        0.0000000000	
        0.2038656183	      -33.4857457825	      605.1858750424	      -19.0662865867	        0.2707138122	        0.0000000000	        0.0528386572	       -0.0440766685	        0.0190186119	        0.0020102807	        0.0000000000	        0.0000000000	        0.0000000000	        0.0000000000	        0.0000000000	        0.0000000000	        0.0000000000	        0.0000000000	        0.0000000000	
